P3
3 2
255
# The part above is the header
# The part below is the image data: RGB triplets
200 
0   
0
0
200
0
0
0
200
200
200
0
200
200
200
0
0
0